<svg width="400" height="300" viewBox="0 0 400 300" fill="none" xmlns="http://www.w3.org/2000/svg">
  <defs>
    <linearGradient id="officeGrad" x1="0%" y1="0%" x2="100%" y2="100%">
      <stop offset="0%" style="stop-color:#E0F2FE;stop-opacity:1" />
      <stop offset="100%" style="stop-color:#F0F9FF;stop-opacity:1" />
    </linearGradient>
    <linearGradient id="furnitureGrad" x1="0%" y1="0%" x2="100%" y2="100%">
      <stop offset="0%" style="stop-color:#8B5CF6;stop-opacity:0.1" />
      <stop offset="100%" style="stop-color:#3B82F6;stop-opacity:0.1" />
    </linearGradient>
  </defs>
  
  <!-- Background -->
  <rect width="400" height="300" fill="url(#officeGrad)"/>
  
  <!-- Window -->
  <rect x="280" y="40" width="100" height="120" fill="#E0F7FA" stroke="#B0BEC5" stroke-width="2"/>
  <line x1="330" y1="40" x2="330" y2="160" stroke="#B0BEC5" stroke-width="1"/>
  <line x1="280" y1="100" x2="380" y2="100" stroke="#B0BEC5" stroke-width="1"/>
  
  <!-- Chair 1 -->
  <ellipse cx="120" cy="180" rx="35" ry="25" fill="url(#furnitureGrad)" stroke="#8B5CF6" stroke-width="2"/>
  <rect x="105" y="130" width="30" height="50" fill="url(#furnitureGrad)" stroke="#8B5CF6" stroke-width="2" rx="15"/>
  
  <!-- Chair 2 -->
  <ellipse cx="220" cy="180" rx="35" ry="25" fill="url(#furnitureGrad)" stroke="#3B82F6" stroke-width="2"/>
  <rect x="205" y="130" width="30" height="50" fill="url(#furnitureGrad)" stroke="#3B82F6" stroke-width="2" rx="15"/>
  
  <!-- Coffee Table -->
  <ellipse cx="170" cy="210" rx="40" ry="15" fill="#F8F9FA" stroke="#DEE2E6" stroke-width="2"/>
  
  <!-- Plant -->
  <ellipse cx="320" cy="240" rx="15" ry="30" fill="#10B981" opacity="0.3"/>
  <rect x="315" y="250" width="10" height="20" fill="#8B4513" opacity="0.6"/>
  
  <!-- Books on side table -->
  <rect x="50" y="200" width="40" height="20" fill="#F8F9FA" stroke="#DEE2E6" stroke-width="1"/>
  <rect x="55" y="195" width="8" height="15" fill="#3B82F6" opacity="0.6"/>
  <rect x="65" y="195" width="8" height="15" fill="#8B5CF6" opacity="0.6"/>
  <rect x="75" y="195" width="8" height="15" fill="#10B981" opacity="0.6"/>
  
  <!-- Tissue box -->
  <rect x="160" y="205" width="20" height="8" fill="white" stroke="#DEE2E6" stroke-width="1"/>
  
  <!-- Soft lighting -->
  <circle cx="100" cy="60" r="25" fill="#FEF3C7" opacity="0.4"/>
  <circle cx="100" cy="60" r="15" fill="#F59E0B" opacity="0.2"/>
</svg>