<svg width="100" height="100" viewBox="0 0 100 100" fill="none" xmlns="http://www.w3.org/2000/svg">
  <defs>
    <linearGradient id="anxietyGrad" x1="0%" y1="0%" x2="100%" y2="100%">
      <stop offset="0%" style="stop-color:#3B82F6;stop-opacity:1" />
      <stop offset="100%" style="stop-color:#06B6D4;stop-opacity:1" />
    </linearGradient>
  </defs>
  <!-- Mind/Brain symbol -->
  <path d="M50 15C30 15 20 25 20 40C20 50 25 58 35 62C45 68 55 68 65 62C75 58 80 50 80 40C80 25 70 15 50 15Z" 
        fill="url(#anxietyGrad)" opacity="0.2"/>
  <!-- Calming waves -->
  <path d="M15 70C25 65 35 75 45 70C55 65 65 75 75 70C80 68 85 70 85 70" 
        stroke="url(#anxietyGrad)" stroke-width="3" fill="none" stroke-linecap="round"/>
  <path d="M15 80C25 75 35 85 45 80C55 75 65 85 75 80C80 78 85 80 85 80" 
        stroke="url(#anxietyGrad)" stroke-width="2" fill="none" stroke-linecap="round" opacity="0.7"/>
  <!-- Central peaceful symbol -->
  <circle cx="50" cy="40" r="8" fill="url(#anxietyGrad)" opacity="0.8"/>
  <circle cx="50" cy="40" r="4" fill="white"/>
</svg>