<svg width="100" height="100" viewBox="0 0 100 100" fill="none" xmlns="http://www.w3.org/2000/svg">
  <defs>
    <linearGradient id="relationshipGrad" x1="0%" y1="0%" x2="100%" y2="100%">
      <stop offset="0%" style="stop-color:#8B5CF6;stop-opacity:1" />
      <stop offset="100%" style="stop-color:#EC4899;stop-opacity:1" />
    </linearGradient>
  </defs>
  <!-- Two hearts interconnected -->
  <path d="M35 25C25 25 20 30 20 40C20 55 35 65 40 70C45 65 60 55 60 40C60 30 55 25 45 25C42 25 40 27 40 30C40 27 38 25 35 25Z" 
        fill="url(#relationshipGrad)" opacity="0.3"/>
  <path d="M65 35C55 35 50 40 50 50C50 65 65 75 70 80C75 75 90 65 90 50C90 40 85 35 75 35C72 35 70 37 70 40C70 37 68 35 65 35Z" 
        fill="url(#relationshipGrad)" opacity="0.3"/>
  <!-- Connection line -->
  <path d="M42 45C46 48 54 48 58 45" stroke="url(#relationshipGrad)" stroke-width="3" stroke-linecap="round"/>
  <!-- Central unity symbol -->
  <circle cx="50" cy="50" r="5" fill="url(#relationshipGrad)"/>
  <circle cx="50" cy="50" r="2" fill="white"/>
</svg>