<svg width="100" height="100" viewBox="0 0 100 100" fill="none" xmlns="http://www.w3.org/2000/svg">
  <defs>
    <linearGradient id="traumaGrad" x1="0%" y1="0%" x2="100%" y2="100%">
      <stop offset="0%" style="stop-color:#10B981;stop-opacity:1" />
      <stop offset="100%" style="stop-color:#F97316;stop-opacity:1" />
    </linearGradient>
  </defs>
  <!-- Phoenix/Rising symbol -->
  <path d="M50 20C40 20 35 25 35 35C35 45 40 50 50 50C60 50 65 45 65 35C65 25 60 20 50 20Z" 
        fill="url(#traumaGrad)" opacity="0.2"/>
  <!-- Growth/healing branches -->
  <path d="M50 50L45 60L40 70" stroke="url(#traumaGrad)" stroke-width="3" stroke-linecap="round"/>
  <path d="M50 50L55 60L60 70" stroke="url(#traumaGrad)" stroke-width="3" stroke-linecap="round"/>
  <path d="M50 50L50 65L50 80" stroke="url(#traumaGrad)" stroke-width="4" stroke-linecap="round"/>
  <!-- Leaves/new growth -->
  <ellipse cx="42" cy="65" rx="3" ry="6" fill="url(#traumaGrad)" opacity="0.6" transform="rotate(-30 42 65)"/>
  <ellipse cx="58" cy="65" rx="3" ry="6" fill="url(#traumaGrad)" opacity="0.6" transform="rotate(30 58 65)"/>
  <ellipse cx="50" cy="75" rx="4" ry="8" fill="url(#traumaGrad)" opacity="0.6"/>
  <!-- Central strength symbol -->
  <circle cx="50" cy="35" r="6" fill="url(#traumaGrad)" opacity="0.8"/>
  <circle cx="50" cy="35" r="3" fill="white"/>
</svg>